<svg xmlns="http://www.w3.org/2000/svg" version="1.1" xmlns:xlink="http://www.w3.org/1999/xlink" width="500" height="500"><svg version="1.1" id="SvgjsSvg1013" xmlns="http://www.w3.org/2000/svg" xmlns:xlink="http://www.w3.org/1999/xlink" x="0px" y="0px" viewBox="0 0 500 500" style="enable-background:new 0 0 500 500;" xml:space="preserve">
<style type="text/css">
	.st0{fill:#F3FFF8;}
	.st1{opacity:0.5;fill:#BCCCA3;}
	.st2{fill:#BCCCA3;}
	.st3{fill:#285046;}
</style>
<g>
	<path class="st0" d="M87.9,0h324.2C460.7,0,500,39.1,500,87.4v325.1c0,48.3-39.3,87.4-87.9,87.4H87.9C39.3,500,0,460.9,0,412.6
		V87.4C0,39.1,39.3,0,87.9,0z"></path>
	<g id="SvgjsG1012">
		<path class="st1" d="M467.2,67.2v-7.6h-5.1V32.1h-7.6v27.5H299.9c-9.8-1.3-20-2-30.4-2h0c-9.9,0-19.5,0.7-28.9,2H92.8l0-9.3
			l-7.6,0l0,9.3H62.6v7.6h22.5l-0.1,20.1c-32.3,7.7-56.3,36.1-56.3,69.9c0,33.2,23.1,61.2,54.5,69.5c-1.2,9.4-1.8,19.1-1.8,28.8
			c0,11.6,0.9,23,2.8,34.2l0,10H64.8v7.6h19.4l-0.6,141H67.1v7.6h16.5l0,9.9l7.6,0l0-9.9h106.5v11.8h7.6V456h89.1v9.6h7.6V456h152.4
			v9.6h7.6V456h0.6v-7.6h-0.6v-122h1.7v-7.6h-1.7V194.6h1.7V187h-1.7V67.2H467.2z M84.6,217.6c-0.1,0.5-0.2,1-0.2,1.5
			c-27.6-7.7-47.9-32.5-47.9-61.8c0-29.6,20.6-54.5,48.6-62L84.6,217.6z M241.5,67.2h57.9c41.6,5.7,77.3,23.5,104.5,52.4
			c17.7,18.8,31,41.7,39.3,67.4h-64.1c-22-41.3-62.4-69-108.6-69c-37.6,0-71.3,18.4-94.5,47.4c0.3-2.7,0.5-5.4,0.5-8.1
			c0-20.1-8.5-38.4-22.3-51.5C178.3,85.6,208,72.1,241.5,67.2z M445.5,194.6c5.2,18.5,7.9,38.4,7.9,58.9c0,23.4-3,45.3-8.7,65.2
			h-60.5c8-18.4,12.5-39,12.5-60.7c0-22.8-4.9-44.4-13.7-63.5H445.5z M92.8,67.2h114.8c-5.2,1.7-10.4,3.7-15.4,5.9
			c-16.1,7-30.9,16.2-44.1,27.5c-12.5-9.6-28.3-15.3-45.5-15.3c-3.4,0-6.7,0.2-9.9,0.6L92.8,67.2z M92.7,93.7
			c3.2-0.5,6.5-0.7,9.9-0.7c14.9,0,28.6,4.8,39.7,12.9c-3.3,3.1-6.5,6.3-9.5,9.6c-18.2,19.8-31.8,43.7-40.5,70.3L92.7,93.7z
			 M92.2,218c7.3-43.5,27.2-80.5,56.2-107.2c12.6,11.7,20.4,28.2,20.4,46.4c0,35.5-29.7,64.3-66.2,64.3c-3.6,0-7-0.3-10.4-0.8
			L92.2,218z M92.2,228.5c3.4,0.5,6.9,0.7,10.5,0.7c18.8,0,36.1-6.9,49.1-18.3c-4.7,14.7-7.3,30.6-7.3,47.1c0,14.5,2,28.5,5.7,41.7
			H93.9c-0.8-3.4-1.4-6.9-2-10.4L92.2,228.5z M197.7,448.4H91.3l0.5-127.9c9.2,28.1,24.6,53.8,45.3,75.3
			c17.6,18.3,38.2,32.5,60.6,42.3V448.4z M197.7,430c-49.8-22.5-87.4-67.1-102-122.6h56.7c9,26.4,24.9,49,45.3,65V430z M197.7,362.6
			c-16.4-14.3-29.3-33.3-37.2-55.1h37.2V362.6z M205.4,448.4v-7.2c7.5,2.9,15.3,5.3,23.1,7.2H205.4z M294.5,444.8
			c-7.2,0.7-14.5,1.1-22.1,1.1c-23.8,0-46.4-4.5-67-12.7V378c19,12.8,41.3,20.2,65.1,20.2c8.2,0,16.2-0.9,24-2.5V444.8z
			 M294.5,255.6v63.2h-27.3v7.6h27.3v61.4c-7.8,1.8-15.8,2.7-24,2.7c-24,0-46.4-8-65.1-21.9v-61.3h15.1v-7.6h-15.1v-12.9h-7.6v12.9
			h-39.7c-3.9-13.1-6-27.1-6-41.7c0-73,53.1-132.5,118.4-132.5c41.9,0,78.8,24.5,99.9,61.4h-72.1v7.6h76.1
			c9.2,18.9,14.5,40.5,14.5,63.5c0,21.9-4.8,42.5-13.2,60.7h-73.6v-63.2H294.5z M371.9,326.4c-15.5,28.6-40.4,50.2-69.8,59.3v-59.3
			H371.9z M302.1,393.7c33.6-9.7,61.8-34.4,78.4-67.3h61.8C421,391,370.5,434.2,302.1,443.9V393.7z M454.5,448.4H320
			c36.5-8.3,67.7-26.4,91.9-53.7c16.9-19.1,29.8-42.3,38.1-68.2h4.5V448.4z M454.5,318.8h-2.2c0.8-2.8,1.5-5.7,2.2-8.5V318.8z
			 M454.5,198.9c-0.4-1.5-0.7-2.9-1.1-4.3h1.1V198.9z M454.5,187h-3.4c-8.6-27.7-22.7-52.4-41.7-72.6c-20.7-22-46.2-37.9-75.2-47.1
			h120.3V187z"></path>
		<path class="st2" d="M201.6,384.6v26.8c0,11.7-12.7,18.9-22.6,12.7c-34.6-21.5-61.9-54.6-77.2-94.3c-4.9-12.6,4.6-26.3,18.1-26.3
			h17.9c10.4,0,19.7,6.1,24.1,15.5c7.4,16,17.6,30.1,29.8,41.7C198.1,366.9,201.6,375.7,201.6,384.6L201.6,384.6z"></path>
		<path class="st3" d="M336.5,142c-19-12.9-41.9-19.5-68.1-19.5c-21.8,0-41.8,5.6-59.3,16.5c-17.6,11-31.4,26.9-41.1,47.2
			c-11.6,24.4-36.1,40-63.1,40l-7.6,0.1c-4.2,0.1-7.5-3.7-6.8-7.9c3.4-22.7,9.6-43.9,19.5-62.8c15-29.2,36.4-52.2,63.7-68.5
			c27.4-16.2,59.6-24.4,95.9-24.4c47.1,0,86.6,12.3,117.4,36.5l0,0c25.5,20,44,46.2,55.2,78.3c2.3,6.5-2.6,13.3-9.5,13.3H383
			c-3.8,0-7.2-2.2-8.9-5.6C365.2,167.5,352.6,153,336.5,142L336.5,142z M380.8,322.3h56.8c4.3,0,7.5,4.3,6.1,8.4
			c-11.1,34.3-30.1,62.2-56.9,83.2c-21.7,17-47.6,28.2-77.2,33.2c-6.1,1-11.7-3.6-11.7-9.8v-47.1c0-1.5,1-2.7,2.4-3
			c13.2-3.1,25.3-8.5,36.1-15.8c16.6-11.4,29.5-26.6,38.5-45.3C376.1,323.7,378.3,322.3,380.8,322.3L380.8,322.3z"></path>
	</g>
</g>
</svg><style>@media (prefers-color-scheme: light) { :root { filter: none; } }
@media (prefers-color-scheme: dark) { :root { filter: none; } }
</style></svg>