<svg width="100" height="8" viewBox="0 0 100 8" fill="none" xmlns="http://www.w3.org/2000/svg">
<path d="M8.75276 6.29701V6.97638H5.10091V1.49194H8.7128V2.17131H5.84498V3.84595H8.49205V4.49487H5.84498V6.29701H8.75276Z" fill="white"/>
<path d="M12.1344 7.0543C11.7386 7.0543 11.3732 6.98199 11.0364 6.83736C10.6995 6.69273 10.4046 6.49102 10.1553 6.23221C9.90407 5.9734 9.71186 5.67463 9.57485 5.33209C9.43783 4.98955 9.36932 4.62418 9.36932 4.23406C9.36932 3.83824 9.43783 3.47096 9.57485 3.12842C9.71186 2.78588 9.90597 2.48711 10.1553 2.23211C10.4046 1.97711 10.6976 1.77729 11.0325 1.63076C11.3675 1.48613 11.7328 1.41382 12.1268 1.41382C12.5587 1.41382 12.9374 1.48804 13.2648 1.63457C13.5921 1.783 13.8813 1.98281 14.1344 2.23591L13.6206 2.74972C13.4474 2.55562 13.2343 2.40147 12.985 2.2911C12.7338 2.18073 12.4484 2.12554 12.1268 2.12554C11.8375 2.12554 11.5711 2.17692 11.3294 2.27968C11.0877 2.38244 10.8765 2.52898 10.6976 2.71737C10.5187 2.90767 10.3798 3.13032 10.2828 3.38913C10.1857 3.64794 10.1362 3.92958 10.1362 4.23406C10.1362 4.54044 10.1857 4.82209 10.2828 5.07899C10.3798 5.3378 10.5187 5.56045 10.6976 5.75075C10.8765 5.94105 11.0877 6.08568 11.3294 6.18844C11.5711 6.2912 11.8375 6.34258 12.1268 6.34258C12.4693 6.34258 12.7662 6.28549 13.0193 6.17322C13.2724 6.06094 13.4855 5.9068 13.6587 5.71079L14.1725 6.21699C13.9194 6.4796 13.6225 6.68512 13.2838 6.83356C12.9451 6.98009 12.5626 7.0543 12.1344 7.0543Z" fill="white"/>
<path d="M19.3658 1.49194V6.97638H18.6236V4.47775H15.8262V6.97638H15.0821V1.49194H15.8262V3.79838H18.6236V1.49194H19.3658Z" fill="white"/>
<path d="M24.9755 1.49194V6.97638H24.4541L21.4055 2.90206V6.97638H20.6614V1.49194H21.1828L24.2333 5.54913V1.49194H24.9755Z" fill="white"/>
<path d="M28.7681 7.0543C28.378 7.0543 28.0145 6.98199 27.6777 6.83736C27.3408 6.69273 27.0459 6.48911 26.7928 6.2284C26.5397 5.96769 26.3437 5.66702 26.2048 5.32448C26.0658 4.98194 25.9954 4.61656 25.9954 4.22645C25.9954 3.83063 26.0658 3.46335 26.2048 3.12461C26.3437 2.78398 26.5397 2.48521 26.789 2.2283C27.0383 1.96949 27.3313 1.76968 27.6663 1.62695C28.0012 1.48423 28.3628 1.41382 28.7529 1.41382C29.143 1.41382 29.5046 1.48423 29.8395 1.62695C30.1744 1.76968 30.4675 1.96949 30.7206 2.2283C30.9737 2.48711 31.1716 2.78588 31.3124 3.12842C31.4551 3.47096 31.5255 3.84014 31.5255 4.23406C31.5255 4.62418 31.4551 4.98955 31.3124 5.33209C31.1697 5.67463 30.9737 5.9753 30.7244 6.23221C30.4732 6.49102 30.182 6.69273 29.8471 6.83736C29.5122 6.98199 29.1525 7.0543 28.7681 7.0543ZM28.7529 6.34258C29.1487 6.34258 29.495 6.25124 29.7919 6.07045C30.0888 5.88777 30.3247 5.63847 30.4998 5.31877C30.673 5.00097 30.7605 4.63559 30.7605 4.22455C30.7605 3.92007 30.7111 3.63842 30.6102 3.38342C30.5093 3.12842 30.3704 2.90577 30.1915 2.71547C30.0127 2.52517 29.8014 2.37864 29.5597 2.27778C29.3181 2.17502 29.0478 2.12364 28.7529 2.12364C28.3628 2.12364 28.0183 2.21308 27.7214 2.39196C27.4246 2.57084 27.1886 2.81823 27.0173 3.13413C26.8461 3.45003 26.7604 3.8135 26.7604 4.22455C26.7604 4.53093 26.8099 4.81257 26.907 5.07328C27.004 5.33399 27.141 5.55855 27.318 5.74504C27.495 5.93154 27.7043 6.07807 27.9498 6.18463C28.1953 6.2912 28.4636 6.34258 28.7529 6.34258Z" fill="white"/>
<path d="M45.263 1.49194H44.7264L42.4827 6.97638H43.2725L43.7692 5.73563H46.2012L46.6941 6.97638H47.5009L45.263 1.49194ZM44.028 5.08671L44.9909 2.68322L45.9443 5.08671H44.028Z" fill="white"/>
<path d="M50.4543 4.58812C50.7531 4.5748 51.0176 4.5101 51.2479 4.39592C51.5048 4.26651 51.7046 4.08763 51.8454 3.85356C51.9843 3.6214 52.0547 3.35117 52.0547 3.03908C52.0547 2.73841 51.9843 2.47389 51.8454 2.24172C51.7065 2.00956 51.5067 1.82687 51.2479 1.69366C50.9891 1.55855 50.6865 1.49194 50.3382 1.49194H48.323V6.97638H49.0651V4.59002H49.5504L51.4838 6.97638H52.4239L50.4543 4.58812ZM49.0651 3.96394V2.13896H50.3135C50.6351 2.13896 50.8806 2.2246 51.0519 2.39967C51.2231 2.57285 51.3088 2.79169 51.3088 3.05621C51.3088 3.33595 51.2231 3.5567 51.0481 3.72035C50.873 3.88401 50.6256 3.96584 50.3059 3.96584H49.0651V3.96394Z" fill="white"/>
<path d="M56.8407 6.29701V6.97638H53.1888V1.49194H56.8007V2.17131H53.9329V3.84595H56.58V4.49487H53.9329V6.29701H56.8407Z" fill="white"/>
<path d="M70.2338 7.0543C69.838 7.0543 69.4726 6.98199 69.1358 6.83736C68.7989 6.69273 68.504 6.49102 68.2547 6.23221C68.0035 5.9734 67.8113 5.67463 67.6743 5.33209C67.5372 4.98955 67.4687 4.62418 67.4687 4.23406C67.4687 3.83824 67.5372 3.47096 67.6743 3.12842C67.8113 2.78588 68.0054 2.48711 68.2547 2.23211C68.504 1.97711 68.797 1.77729 69.132 1.63076C69.4669 1.48613 69.8323 1.41382 70.2262 1.41382C70.6582 1.41382 71.0369 1.48804 71.3642 1.63457C71.6915 1.783 71.9807 1.98281 72.2338 2.23591L71.72 2.74972C71.5469 2.55562 71.3337 2.40147 71.0844 2.2911C70.8332 2.18073 70.5478 2.12554 70.2262 2.12554C69.9369 2.12554 69.6705 2.17692 69.4288 2.27968C69.1871 2.38244 68.9759 2.52898 68.797 2.71737C68.6181 2.90767 68.4792 3.13032 68.3822 3.38913C68.2851 3.64794 68.2356 3.92958 68.2356 4.23406C68.2356 4.54044 68.2851 4.82209 68.3822 5.07899C68.4792 5.3378 68.6181 5.56045 68.797 5.75075C68.9759 5.94105 69.1871 6.08568 69.4288 6.18844C69.6705 6.2912 69.9369 6.34258 70.2262 6.34258C70.5687 6.34258 70.8656 6.28549 71.1187 6.17322C71.3718 6.06094 71.5849 5.9068 71.7581 5.71079L72.2719 6.21699C72.0188 6.4796 71.7219 6.68512 71.3832 6.83356C71.0426 6.98009 70.6601 7.0543 70.2338 7.0543Z" fill="white"/>
<path d="M75.4175 1.49194H74.8808L72.6353 6.97638H73.425L73.9217 5.73563H76.3538L76.8466 6.97638H77.6535L75.4175 1.49194ZM74.1824 5.08671L75.1454 2.68322L76.0988 5.08671H74.1824Z" fill="white"/>
<path d="M83.0864 3.14179C82.9475 2.81067 82.7515 2.52142 82.5022 2.27212C82.2529 2.02473 81.958 1.83253 81.6173 1.69551C81.2767 1.5585 80.9075 1.48999 80.506 1.48999H78.4755V6.97443H80.5231C80.9189 6.97443 81.2843 6.90592 81.6249 6.76891C81.9656 6.63189 82.2586 6.43969 82.506 6.1923C82.7534 5.94491 82.9475 5.65375 83.0864 5.31882C83.2254 4.98389 83.2958 4.62233 83.2958 4.23221C83.2958 3.83829 83.2254 3.47482 83.0864 3.14179ZM82.272 5.29979C82.1007 5.60998 81.8628 5.85357 81.5564 6.03054C81.25 6.20752 80.8942 6.29506 80.4889 6.29506H79.2157V2.17126H80.4889C80.8885 2.17126 81.2424 2.2588 81.5488 2.43197C81.8552 2.60515 82.095 2.84873 82.2682 3.15892C82.4413 3.47101 82.5289 3.82497 82.5289 4.2265C82.5289 4.63184 82.4432 4.9896 82.272 5.29979Z" fill="white"/>
<path d="M87.9733 6.29701V6.97638H84.3233V1.49194H87.9333V2.17131H85.0655V3.84595H87.7126V4.49487H85.0655V6.29701H87.9733Z" fill="white"/>
<path d="M94.3197 1.49194V6.97638H93.5775V3.12852L91.9162 5.85361H91.3948L89.7278 3.1152V6.97638H88.9856V1.49194H89.507L91.6517 5.0163L93.7983 1.49194H94.3197Z" fill="white"/>
<path d="M100 1.49194L97.9695 4.53484V6.97638H97.2274V4.55577L95.195 1.49194H96.057L97.6023 3.85737L99.1551 1.49194H100Z" fill="white"/>
<path d="M67.9123 7.30358C67.8723 7.26552 67.8285 7.21985 67.7791 7.17228C67.7201 7.11328 67.6554 7.04858 67.583 6.97627C67.5678 6.96104 67.5431 6.96104 67.5279 6.97627L67.5088 6.9953C67.4936 7.01052 67.4708 7.01052 67.4555 6.9953C67.4251 6.96675 67.3985 6.94011 67.3737 6.90966C67.3661 6.90015 67.3737 6.8697 67.3832 6.85638C67.3889 6.85067 67.3927 6.84686 67.3985 6.84115C67.4137 6.82593 67.4118 6.80309 67.3985 6.78977C67.349 6.74029 67.2976 6.68891 67.2424 6.63373C67.2272 6.6185 67.2024 6.6185 67.1872 6.63373C67.1511 6.66988 67.1149 6.70604 67.0768 6.7422C67.0312 6.78597 66.9798 6.78406 66.9379 6.74029C66.8999 6.70033 66.9018 6.65466 66.9455 6.61089C66.9817 6.57473 67.0179 6.53858 67.0559 6.50052C67.0711 6.48529 67.0711 6.46055 67.0559 6.44533C67.0064 6.39585 66.957 6.34637 66.9056 6.29499C66.8904 6.27977 66.8656 6.27977 66.8504 6.29499L66.8314 6.31402C66.8161 6.32925 66.7914 6.32925 66.7762 6.31402C66.7514 6.28928 66.7305 6.26645 66.7058 6.24551C66.681 6.22078 66.6886 6.20555 66.721 6.17891C66.7419 6.16178 66.7419 6.13324 66.7229 6.11421C66.6677 6.05902 66.6125 6.00383 66.5554 5.94674C66.5402 5.93152 66.5155 5.93152 66.5002 5.94674C66.4679 5.97909 66.4374 6.00954 66.4051 6.04189C66.3708 6.07615 66.3309 6.09518 66.2871 6.07044C66.2243 6.03618 66.2072 5.97339 66.2624 5.92391C66.3004 5.88965 66.3366 5.8535 66.3727 5.81734C66.388 5.80212 66.388 5.77738 66.3727 5.76215L66.1939 5.58327C66.1786 5.56805 66.1539 5.56805 66.1387 5.58327L66.1292 5.59279C66.1139 5.60801 66.0892 5.60801 66.074 5.59279L66.015 5.53379C65.9998 5.51857 65.9998 5.49383 66.015 5.47861L66.0245 5.46909C66.0397 5.45387 66.0397 5.42913 66.0245 5.4139C65.9579 5.3473 65.8913 5.28069 65.8247 5.21219C65.8209 5.21599 65.8171 5.2198 65.8133 5.2236C65.76 5.27689 65.7105 5.33017 65.6553 5.38155C65.6515 5.38536 65.6458 5.38726 65.6401 5.38726C65.5392 5.37584 65.5069 5.2845 65.5602 5.22931C65.5982 5.19125 65.6363 5.15319 65.6743 5.11513C65.6896 5.09991 65.6896 5.07707 65.6743 5.06185C65.6249 5.01237 65.5735 4.96099 65.524 4.91151C65.5031 4.89058 65.4669 4.89058 65.4441 4.91151C65.4193 4.93815 65.4022 4.94006 65.3756 4.91151C65.2918 4.82207 65.2652 4.83159 65.3261 4.76688C65.3413 4.75166 65.3413 4.72692 65.3261 4.7117C65.2728 4.65841 65.2195 4.60323 65.1662 4.54994C65.151 4.53472 65.1263 4.53472 65.1111 4.54994C65.073 4.588 65.0368 4.62416 64.9988 4.66032C64.9436 4.7136 64.8732 4.69838 64.8465 4.62797C64.8332 4.59371 64.8408 4.56517 64.8675 4.54043C64.9074 4.50237 64.9455 4.46431 64.9855 4.42434C65.0007 4.40912 65.0007 4.38629 64.9855 4.37106C64.9322 4.31778 64.8789 4.26259 64.8256 4.21121C64.8104 4.19599 64.7856 4.19599 64.7704 4.21121L64.7495 4.23214C64.7343 4.24737 64.7114 4.24737 64.6962 4.23214C64.6696 4.2055 64.6429 4.18266 64.622 4.15412C64.6144 4.1446 64.622 4.11225 64.6334 4.09893C64.6372 4.09322 64.6429 4.08942 64.6467 4.08371C64.66 4.06848 64.66 4.04565 64.6467 4.03042C64.5915 3.97524 64.5363 3.92005 64.4812 3.86677C64.4659 3.85154 64.4412 3.85154 64.426 3.86677C64.3917 3.90292 64.3556 3.93718 64.3213 3.97143C64.2718 4.02091 64.1938 4.00949 64.1596 3.9524C64.1596 3.9524 64.1596 3.9524 64.1577 3.9524C64.1215 3.91624 64.1215 3.86867 64.1596 3.83061C64.1976 3.79255 64.2357 3.75449 64.2737 3.71643C64.289 3.70121 64.289 3.67647 64.2737 3.66124C64.2052 3.59273 64.1367 3.52423 64.0701 3.45572C64.0587 3.46714 64.0473 3.47855 64.0359 3.48997C64.0149 3.51281 63.9978 3.51852 63.9731 3.49188C63.8893 3.40434 63.8741 3.41195 63.9236 3.36628C63.9388 3.35105 63.9407 3.32632 63.9236 3.30919C63.8722 3.25781 63.8208 3.20643 63.7694 3.15505C63.7542 3.13982 63.7295 3.13982 63.7143 3.15505C63.6629 3.20643 63.6134 3.2559 63.5601 3.30538C63.5506 3.3149 63.5335 3.3168 63.5221 3.31109C63.4288 3.2559 63.4079 3.19501 63.4593 3.14363C63.4992 3.10366 63.5392 3.0637 63.5791 3.02374C63.5944 3.00851 63.5944 2.98378 63.5791 2.96855C63.5125 2.90385 63.4478 2.83724 63.3831 2.77254C63.3394 2.72877 63.2937 2.6831 63.2499 2.63933C63.189 2.57844 63.1281 2.51754 63.0672 2.45664C63.052 2.44142 63.0292 2.44142 63.0139 2.45664C62.9759 2.4928 62.9397 2.53086 62.9017 2.56892C62.856 2.61269 62.8027 2.61079 62.7628 2.56702C62.7247 2.52706 62.7266 2.48138 62.7704 2.43761C62.8065 2.40146 62.8446 2.3634 62.8807 2.32724C62.896 2.31202 62.896 2.28728 62.8807 2.27205C62.8294 2.22067 62.7799 2.1712 62.7304 2.12172C62.7152 2.10649 62.6923 2.10649 62.6771 2.12172L62.6562 2.14265C62.641 2.15787 62.6162 2.15787 62.601 2.14265C62.5763 2.11791 62.5553 2.09508 62.5306 2.07414C62.5058 2.0494 62.5154 2.03418 62.5458 2.00944C62.5667 1.99231 62.5686 1.95996 62.5496 1.94093C62.4925 1.88384 62.4373 1.82866 62.3822 1.77347C62.3669 1.75824 62.3441 1.75824 62.3289 1.77347C62.2965 1.80582 62.2642 1.83817 62.2318 1.87242C62.1976 1.90668 62.1576 1.92571 62.1138 1.90097C62.051 1.86672 62.0339 1.80392 62.0891 1.75444C62.1272 1.72018 62.1633 1.68403 62.1995 1.64787C62.2147 1.63265 62.2147 1.60791 62.1995 1.59268C62.1405 1.53179 62.0796 1.47279 62.0225 1.4157C62.0073 1.40048 61.9844 1.40048 61.9692 1.4157L61.9578 1.42712C61.9426 1.44235 61.9197 1.44235 61.9045 1.42712L61.8436 1.36813C61.8284 1.35291 61.8284 1.32817 61.8436 1.31294L61.855 1.30152C61.8702 1.2863 61.8702 1.26156 61.855 1.24634C61.796 1.18735 61.737 1.12835 61.6818 1.07317C61.6666 1.05794 61.6438 1.05794 61.6286 1.07317C61.5848 1.11693 61.5429 1.1607 61.4992 1.20257C61.4839 1.21589 61.4649 1.2235 61.4459 1.21779C61.364 1.19496 61.3412 1.11503 61.3888 1.06555C61.4268 1.02749 61.4649 0.98753 61.503 0.94947C61.5182 0.934246 61.5182 0.909507 61.503 0.894283C61.4497 0.841 60.9054 0.294839 60.6904 0.0817031C60.6599 0.0512552 60.6048 0.0721882 60.6048 0.11786V1.2235C60.6048 1.24824 60.6257 1.26727 60.6504 1.26727C60.6809 1.26537 60.6961 1.27298 60.6961 1.30533C60.6961 1.33768 60.6961 1.36813 60.6961 1.40429C60.6961 1.42522 60.679 1.44235 60.658 1.44235H60.6447C60.6238 1.44235 60.6067 1.45947 60.6067 1.48041C60.6067 1.55082 60.6067 1.62313 60.6067 1.69354C60.6067 1.71448 60.6238 1.7316 60.6447 1.7316C60.6923 1.7316 60.7399 1.7316 60.7855 1.7316C60.8464 1.7316 60.8807 1.76205 60.8826 1.81724C60.8845 1.87813 60.8483 1.91619 60.7855 1.9181C60.738 1.9181 60.6904 1.9181 60.6428 1.9181C60.6219 1.9181 60.6048 1.93522 60.6048 1.95616V2.21496C60.62 2.21496 60.6333 2.21496 60.6485 2.21496C60.6637 2.21496 60.6923 2.23399 60.6923 2.24541C60.6961 2.28347 60.6942 2.32153 60.6942 2.3634C60.6942 2.38433 60.6771 2.40146 60.6561 2.40146H60.6409C60.62 2.40146 60.6028 2.41858 60.6028 2.43952V2.6793C60.6028 2.70023 60.62 2.71736 60.6409 2.71736C60.6923 2.71736 60.7437 2.71736 60.797 2.71736C60.8693 2.71736 60.8978 2.77445 60.8712 2.88101C60.8674 2.89433 60.854 2.90385 60.8407 2.90385C60.7741 2.90385 60.7056 2.90575 60.639 2.90385C60.6181 2.90385 60.6009 2.92098 60.6009 2.94191V3.16075C60.6009 3.18169 60.6181 3.19881 60.639 3.19881C60.6923 3.19881 60.6771 3.21023 60.679 3.32251C60.679 3.35867 60.6637 3.36628 60.6333 3.36438C60.6219 3.36438 60.6105 3.36438 60.599 3.36438V3.65363C60.599 3.67456 60.6162 3.69169 60.6371 3.69169C60.6866 3.69169 60.7361 3.69169 60.7855 3.69169C60.8388 3.69169 60.8731 3.72594 60.8731 3.77733C60.8731 3.77733 60.8731 3.77733 60.8731 3.77923C60.8883 3.84393 60.8426 3.90673 60.7722 3.90673C60.7265 3.90673 60.6809 3.90673 60.6371 3.90673C60.6162 3.90673 60.599 3.92386 60.599 3.94479V4.21502C60.6143 4.21502 60.6276 4.21502 60.6409 4.21692C60.658 4.21692 60.6866 4.23405 60.6885 4.24737C60.6923 4.28162 60.6923 4.31778 60.6904 4.35584C60.6904 4.37677 60.6733 4.3939 60.6523 4.3939H60.6371C60.6162 4.3939 60.599 4.41102 60.599 4.43196V4.66032C60.599 4.68125 60.6162 4.69838 60.6371 4.69838C60.6866 4.69838 60.738 4.69838 60.7874 4.69647C60.8255 4.69647 60.8502 4.70979 60.8655 4.74405C60.8959 4.81256 60.8579 4.87345 60.7817 4.87536C60.7342 4.87536 60.6866 4.87536 60.6371 4.87536C60.6162 4.87536 60.599 4.89248 60.599 4.91342V5.14368C60.599 5.16461 60.6162 5.18174 60.6371 5.18174C60.7094 5.18364 60.6866 5.20077 60.6923 5.31875C60.6942 5.35872 60.679 5.36823 60.6428 5.36633C60.62 5.36633 60.6009 5.38346 60.6009 5.40629C60.6009 5.48241 60.6009 5.55853 60.6009 5.63465C60.6009 5.65559 60.6181 5.67271 60.639 5.67271C60.6885 5.67271 60.738 5.67271 60.7874 5.67271C60.8579 5.67271 60.8978 5.74693 60.8559 5.82115C60.8464 5.83827 60.8274 5.84969 60.8065 5.84969C60.7399 5.84969 60.6714 5.84969 60.6048 5.84969H60.6009V6.13324C60.6009 6.15417 60.6181 6.1713 60.639 6.1713C60.6599 6.1713 60.6771 6.18842 60.6771 6.20936V6.29499C60.6771 6.31593 60.6599 6.33305 60.639 6.33305C60.6181 6.33305 60.6009 6.35018 60.6009 6.37111V6.62231C60.6009 6.64324 60.6181 6.66037 60.639 6.66037C60.6847 6.66037 60.7323 6.66037 60.7779 6.65656C60.8521 6.65276 60.8845 6.70985 60.8655 6.77645C60.8521 6.82403 60.8103 6.84115 60.7627 6.83925H60.6409C60.62 6.83925 60.6028 6.85638 60.6028 6.87731V7.39302C60.6028 7.46914 60.6428 7.5072 60.7208 7.5072H61.5467C61.6267 7.5072 61.6895 7.4425 61.6895 7.36448V6.1732C61.6895 5.01618 61.6933 2.66027 61.6952 2.63362C62.9588 3.89721 64.2166 5.15319 65.4783 6.41488C65.4536 6.41678 63.7181 6.42059 62.875 6.42059C62.8217 6.42059 62.7799 6.46436 62.7799 6.51574V7.41205C62.7799 7.46534 62.8237 7.5072 62.875 7.5072C64.5782 7.5072 66.2814 7.5072 67.9827 7.5072C68.0303 7.5072 68.0531 7.45011 68.0207 7.41586C67.9865 7.3816 67.9484 7.34354 67.9008 7.29597L67.9123 7.30358Z" fill="white"/>
<path d="M38.97 6.66988C40.1776 6.66988 41.1565 5.58443 41.1565 4.24546C41.1565 2.90649 40.1776 1.82104 38.97 1.82104C37.7624 1.82104 36.7834 2.90649 36.7834 4.24546C36.7834 5.58443 37.7624 6.66988 38.97 6.66988Z" stroke="#FBFBFB" stroke-width="0.0190297" stroke-miterlimit="10"/>
<path d="M39.0099 7.70309C40.8313 7.70309 42.3078 6.15501 42.3078 4.24535C42.3078 2.33568 40.8313 0.787598 39.0099 0.787598C37.1885 0.787598 35.712 2.33568 35.712 4.24535C35.712 6.15501 37.1885 7.70309 39.0099 7.70309Z" stroke="#FBFBFB" stroke-width="0.0190297" stroke-miterlimit="10"/>
<path d="M35.2534 0.808594H42.4848" stroke="#FBFBFB" stroke-width="0.0190297" stroke-miterlimit="10"/>
<path d="M42.3268 7.96197V0.25293" stroke="#FBFBFB" stroke-width="0.0190297" stroke-miterlimit="10"/>
<path d="M35.771 0.570801L35.6511 7.96204" stroke="#FBFBFB" stroke-width="0.0190297" stroke-miterlimit="10"/>
<path d="M35.3333 7.72217H42.4068" stroke="#FBFBFB" stroke-width="0.0190297" stroke-miterlimit="10"/>
<path d="M39.4666 7.9619V4.22632" stroke="#FBFBFB" stroke-width="0.0190297" stroke-miterlimit="10"/>
<path d="M42.4239 5.41772H38.9091" stroke="#FBFBFB" stroke-width="0.0190297" stroke-miterlimit="10"/>
<path d="M35.969 3.68956C36.6605 3.68956 37.2211 3.14683 37.2211 2.47735C37.2211 1.80786 36.6605 1.26514 35.969 1.26514C35.2774 1.26514 34.7168 1.80786 34.7168 2.47735C34.7168 3.14683 35.2774 3.68956 35.969 3.68956Z" stroke="#FBFBFB" stroke-width="0.0190297" stroke-miterlimit="10"/>
<path d="M35.2934 5.08081H38.0755" stroke="#FBFBFB" stroke-width="0.0190297" stroke-miterlimit="10"/>
<path d="M37.7368 4.78198V7.99995" stroke="#FBFBFB" stroke-width="0.0190297" stroke-miterlimit="10"/>
<path d="M42.4239 3.07324H39.4666" stroke="#FBFBFB" stroke-width="0.0190297" stroke-miterlimit="10"/>
<path d="M37.7368 6.52138V6.99903C37.7368 7.20646 37.5085 7.33396 37.3334 7.22549C36.7149 6.84299 36.2258 6.25306 35.9537 5.54895C35.8662 5.32439 36.0355 5.08081 36.2772 5.08081H36.5969C36.7815 5.08081 36.949 5.18928 37.027 5.35675C37.1583 5.64219 37.341 5.89339 37.5598 6.09701C37.6759 6.20548 37.7368 6.35963 37.7368 6.52138Z" fill="#FBFBFB"/>
<path d="M40.1042 2.25104C39.7654 2.02078 39.3563 1.9047 38.8862 1.9047C38.4961 1.9047 38.1403 2.00365 37.8263 2.19966C37.5123 2.39567 37.2649 2.67731 37.0917 3.03888C36.8843 3.47467 36.4447 3.7506 35.9632 3.7506L35.8262 3.75251C35.752 3.75441 35.693 3.68781 35.7044 3.61359C35.7653 3.21015 35.8776 2.83336 36.0527 2.49653C36.321 1.97891 36.7054 1.56977 37.1926 1.27861C37.6816 0.991257 38.2582 0.844727 38.9072 0.844727C39.7502 0.844727 40.4562 1.06357 41.0062 1.49365C41.461 1.84951 41.7921 2.31574 41.9938 2.88664C42.0338 3.00273 41.9482 3.12452 41.8245 3.12452H40.9377C40.8711 3.12452 40.8083 3.08646 40.7778 3.02556C40.618 2.70776 40.3934 2.44705 40.1042 2.25104ZM40.8958 5.45759H41.912C41.99 5.45759 42.0452 5.53371 42.0224 5.60793C41.8245 6.21689 41.4838 6.71357 41.0062 7.08656C40.5685 7.4291 40.0356 7.63653 39.4172 7.70694V6.66409C39.4172 6.63745 39.4343 6.61652 39.4609 6.61081C39.6969 6.55562 39.9139 6.46047 40.1061 6.32917C40.4029 6.12745 40.6351 5.85722 40.793 5.5242C40.8121 5.48424 40.852 5.45759 40.8958 5.45759Z" fill="white"/>
<path d="M4.45774 7.48619V7.23309H4.27124C4.26554 7.23309 4.25983 7.22738 4.25983 7.22167C4.25983 7.18171 4.25792 7.14555 4.26173 7.1113C4.26363 7.10179 4.28647 7.08656 4.29979 7.08656C4.35117 7.08466 4.40255 7.08466 4.45393 7.08466V6.82775C4.36449 6.82775 4.27695 6.82775 4.18942 6.82775C4.13042 6.82775 4.09236 6.77447 4.10568 6.72119C4.10568 6.72119 4.10568 6.72119 4.10568 6.71928C4.10568 6.67551 4.13423 6.64697 4.1799 6.64697C4.27124 6.64697 4.36259 6.64697 4.45584 6.64697V6.37294C4.40636 6.37294 4.35688 6.37294 4.3093 6.37294C4.28266 6.37294 4.27124 6.36723 4.27124 6.33868C4.27315 6.21499 4.25221 6.23782 4.3702 6.23592C4.39875 6.23592 4.42729 6.23592 4.45584 6.23592V5.99043C4.34927 5.99043 4.2446 5.99043 4.13803 5.99043C4.12662 5.99043 4.1152 5.98092 4.1133 5.9714C4.09046 5.88196 4.1152 5.83439 4.17609 5.83439C4.26744 5.83439 4.36069 5.83439 4.45584 5.83439V5.56987H4.27315C4.26744 5.56987 4.26173 5.56416 4.26173 5.55845C4.26173 5.51659 4.25983 5.47663 4.26363 5.43857C4.26554 5.42905 4.28837 5.41383 4.29979 5.41383C4.35117 5.41192 4.40065 5.41192 4.45393 5.41192V5.16453H4.41968C4.34166 5.16453 4.26363 5.16453 4.18561 5.16453C4.13233 5.16453 4.10378 5.13218 4.10568 5.0808C4.10759 5.03513 4.13613 5.00849 4.18751 5.00849C4.27505 5.00849 4.36449 5.00849 4.45393 5.00849V4.76681H4.27315C4.26744 4.76681 4.26173 4.7611 4.26173 4.75539C4.26173 4.71733 4.26173 4.68498 4.26173 4.65263C4.26173 4.62789 4.27124 4.62218 4.29598 4.62218C4.34927 4.62218 4.40065 4.62218 4.45393 4.62218V4.35576C4.3702 4.35576 4.28647 4.35576 4.20464 4.35576C4.16468 4.35576 4.13042 4.34244 4.119 4.30248C4.10188 4.24729 4.12852 4.19971 4.19132 4.20162C4.27886 4.20733 4.36639 4.20352 4.45393 4.20162V3.939C4.45393 3.93329 4.44822 3.92759 4.44251 3.92759H4.28647C4.28076 3.92759 4.27505 3.92188 4.27505 3.91617V3.80199C4.27505 3.79628 4.28076 3.79057 4.28647 3.79057H4.44251C4.44822 3.79057 4.45393 3.78486 4.45393 3.77915V3.53176C4.45393 3.52605 4.44822 3.52034 4.44251 3.52034C4.40636 3.52034 4.3721 3.52034 4.33595 3.52034C4.27695 3.52034 4.21606 3.52225 4.15516 3.52034C4.14755 3.52034 4.13994 3.51654 4.13423 3.51083C4.08665 3.44613 4.12091 3.37572 4.18371 3.37572C4.26934 3.37572 4.35498 3.37572 4.44061 3.37572C4.44632 3.37572 4.45203 3.37001 4.45203 3.3643V3.13023C4.45203 3.12452 4.44632 3.11881 4.44061 3.11881C4.39494 3.11881 4.34927 3.11881 4.3036 3.11881C4.27315 3.11881 4.25983 3.1112 4.26173 3.07885C4.26744 2.95706 4.23318 2.96657 4.37401 2.96467C4.39494 2.96467 4.41778 2.96467 4.43871 2.96467C4.44442 2.96467 4.45013 2.95896 4.45013 2.95325V2.71918C4.45013 2.71347 4.44442 2.70776 4.43871 2.70776C4.35307 2.70776 4.26934 2.70776 4.18561 2.70776C4.13613 2.70776 4.10568 2.67732 4.10568 2.63735C4.10568 2.59358 4.14565 2.55933 4.18942 2.55933C4.27124 2.55933 4.35307 2.55933 4.43681 2.55933C4.44251 2.55933 4.44822 2.55362 4.44822 2.54791V2.32526C4.44822 2.31955 4.44251 2.31384 4.43681 2.31384H4.27124C4.26554 2.31384 4.25983 2.30813 4.25983 2.30242C4.25983 2.26246 4.25792 2.2263 4.26173 2.19205C4.26363 2.18254 4.28647 2.16731 4.29979 2.16731C4.34356 2.16541 4.38923 2.16541 4.4349 2.16541C4.44061 2.16541 4.44632 2.1597 4.44632 2.15399V1.91802C4.44632 1.91231 4.44061 1.9066 4.4349 1.9066C4.35307 1.9066 4.27124 1.9066 4.19132 1.9066C4.10949 1.9066 4.06762 1.80574 4.14565 1.73914C4.15136 1.73343 4.15897 1.73153 4.16658 1.73153C4.25602 1.73153 4.34356 1.73153 4.43681 1.73153C4.44251 1.73153 4.44822 1.72582 4.44822 1.72011V1.07118C4.44822 1.07118 6.74514 1.06928 7.6719 1.06928C7.7956 1.06928 7.88123 0.945587 7.83556 0.829504C7.67571 0.431778 7.37694 -0.0116208 6.83268 0.00170015C6.80413 0.00170015 6.77749 0.00360312 6.74895 0.00360312C6.13809 -0.000202877 1.69649 -0.00210587 1.09514 0.00360312C1.0685 0.00360312 1.03995 0.00170015 1.01331 0.00170015C0.476667 -0.0116208 0.185508 0.431778 0.0142382 0.83331C-0.0352398 0.94749 0.0503951 1.07689 0.175993 1.07689C0.977155 1.07689 3.38064 1.07499 3.38064 1.07499V7.48048C3.37874 7.47858 4.3683 7.48619 4.45774 7.48619Z" fill="white"/>
</svg>
